<svg xmlns="http://www.w3.org/2000/svg" viewBox="0 0 500 500" width="500" height="500" preserveAspectRatio="xMidYMid meet" style="width: 100%; height: 100%;"><g clip-path="url(#animationMask_Vc3CiCXccC)"><g transform="matrix(1,0,0,1,246.75,247.5)" opacity="1" style="display: block;"><g opacity="1" transform="matrix(1,0,0,1,3.25,0.75)"><path fill="rgb(0,0,255)" fill-opacity="1" d=" M0,-191.75 C105.82682800292969,-191.75 191.75,-105.82682800292969 191.75,0 C191.75,105.82682800292969 105.82682800292969,191.75 0,191.75 C-105.82682800292969,191.75 -191.75,105.82682800292969 -191.75,0 C-191.75,-105.82682800292969 -105.82682800292969,-191.75 0,-191.75z"></path></g></g><g transform="matrix(1,0,0,1,246.75,247.5)" opacity="1" style="display: none;"><g opacity="1" transform="matrix(1,0,0,1,3.25,0.75)"><path fill="rgb(255,255,255)" fill-opacity="1" d=" M0,-9 C4.967100143432617,-9 9,-4.967100143432617 9,0 C9,4.967100143432617 4.967100143432617,9 0,9 C-4.967100143432617,9 -9,4.967100143432617 -9,0 C-9,-4.967100143432617 -4.967100143432617,-9 0,-9z"></path></g></g><g transform="matrix(1,0,0,1,256,249.25)" opacity="1" style="display: block;"><g opacity="1" transform="matrix(1,0,0,1,-14.25,-24.25)"><path stroke-linecap="round" stroke-linejoin="miter" fill-opacity="0" stroke-miterlimit="4" stroke-dasharray="" stroke-dashoffset="0" stroke="rgb(255,255,255)" stroke-opacity="1" stroke-width="17" d=" M-29.152000427246094,-22.05299949645996 C-0.21400000154972076,-22.05299949645996 49.446998596191406,-22.05299949645996 49.446998596191406,-22.05299949645996 C61.617828369140625,-22.053499221801758 71.5,-12.171326637268066 71.5,0 C71.5,0 71.5,0 71.5,0 C71.5,0 71.5,0 71.5,0 C71.5,12.171326637268066 61.617828369140625,22.053499221801758 49.446502685546875,22.053499221801758 C49.446998596191406,22.05299949645996 1.0499999523162842,22.05299949645996 -28.0310001373291,22.05299949645996"></path></g></g><g style="display: none;" transform="matrix(0.8441,-0.5362,0.5362,0.8441,221.6541,211.4366)" opacity="1"><g opacity="1" transform="matrix(1,0,0,1,3.25,0.75)"><path fill="rgb(255,255,255)" fill-opacity="1" d=" M0,-9 C4.967100143432617,-9 9,-4.967100143432617 9,0 C9,4.967100143432617 4.967100143432617,9 0,9 C-4.967100143432617,9 -9,4.967100143432617 -9,0 C-9,-4.967100143432617 -4.967100143432617,-9 0,-9z"></path></g></g><g style="display: none;" transform="matrix(0.8441,-0.5362,0.5362,0.8441,269.9102,287.406)" opacity="1"><g opacity="1" transform="matrix(1,0,0,1,3.25,0.75)"><path fill="rgb(255,255,255)" fill-opacity="1" d=" M0,-9 C4.967100143432617,-9 9,-4.967100143432617 9,0 C9,4.967100143432617 4.967100143432617,9 0,9 C-4.967100143432617,9 -9,4.967100143432617 -9,0 C-9,-4.967100143432617 -4.967100143432617,-9 0,-9z"></path></g></g><g style="display: block;" transform="matrix(1,0,0,1,250,250)" opacity="1"><g opacity="1" transform="matrix(1,0,0,1,0,0)"><path stroke-linecap="round" stroke-linejoin="miter" fill-opacity="0" stroke-miterlimit="4" stroke-dasharray="" stroke-dashoffset="0" stroke="rgb(255,255,255)" stroke-opacity="1" stroke-width="17" d=" M1.5,42 C1.5,42 -37.5,42 -37.5,42"></path></g></g><g style="display: block;" transform="matrix(1,0,0,1,250,250)" opacity="1"><g opacity="1" transform="matrix(1,0,0,1,0,0)"><path stroke-linecap="round" stroke-linejoin="round" fill-opacity="0" stroke-dasharray="" stroke-dashoffset="0" stroke="rgb(255,255,255)" stroke-opacity="1" stroke-width="17" d=" M27.77400016784668,-2.3559999465942383 C31.474000930786133,3.950000047683716 53.5,41.5 53.5,41.5"></path></g></g></g><defs><clipPath id="animationMask_Vc3CiCXccC"><rect width="500" height="500" x="0" y="0"></rect></clipPath></defs></svg>