<?xml version="1.0" encoding="utf-8"?>
<!-- Generator: Adobe Illustrator 25.2.1, SVG Export Plug-In . SVG Version: 6.00 Build 0)  -->
<svg version="1.1" id="Layer_1" xmlns="http://www.w3.org/2000/svg" xmlns:xlink="http://www.w3.org/1999/xlink" x="0px" y="0px"
	 viewBox="0 0 35 35" style="enable-background:new 0 0 35 35;" xml:space="preserve">
<style type="text/css">
	.st0{fill:#3176FF;}
</style>
<path class="st0" d="M17.5,1C7.9,1,0.2,8.7,0.2,18.3c0,7.6,4.9,14.1,11.8,16.4c0.9,0.2,1.2-0.4,1.2-0.8c0-0.4,0-1.5,0-2.9
	c-4.8,1-5.8-2.3-5.8-2.3c-0.8-2-1.9-2.5-1.9-2.5c-1.6-1.1,0.1-1,0.1-1c1.7,0.1,2.6,1.8,2.6,1.8c1.5,2.6,4,1.9,5,1.4
	c0.2-1.1,0.6-1.9,1.1-2.3c-3.8-0.4-7.9-1.9-7.9-8.5c0-1.9,0.7-3.4,1.8-4.6C8,12.3,7.5,10.5,8.4,8.2c0,0,1.4-0.5,4.7,1.8
	c1.4-0.4,2.8-0.6,4.3-0.6c1.5,0,2.9,0.2,4.3,0.6c3.3-2.2,4.7-1.8,4.7-1.8c0.9,2.4,0.3,4.1,0.2,4.6c1.1,1.2,1.8,2.7,1.8,4.6
	c0,6.6-4,8.1-7.9,8.5c0.6,0.5,1.2,1.6,1.2,3.2c0,2.3,0,4.2,0,4.7c0,0.5,0.3,1,1.2,0.8c6.9-2.3,11.8-8.7,11.8-16.3
	C34.7,8.7,27,1,17.5,1"/>
</svg>
