<?xml version="1.0" encoding="utf-8"?>
<!-- Generator: Adobe Illustrator 25.2.1, SVG Export Plug-In . SVG Version: 6.00 Build 0)  -->
<svg version="1.1" id="Layer_1" xmlns="http://www.w3.org/2000/svg" xmlns:xlink="http://www.w3.org/1999/xlink" x="0px" y="0px"
	 viewBox="0 0 35 35" style="enable-background:new 0 0 35 35;" xml:space="preserve">
<style type="text/css">
	.st0{fill:#3176FF;}
</style>
<g>
	<g>
		<g>
			<path class="st0" d="M19.3,1.5c2,0,3.8,0,5.6,0c0.5,4.8,3.3,7.4,8,8c0,1.8,0,3.6,0,5.5c-2.9,0.1-5.4-0.8-7.9-2.4
				c0,0.4-0.1,0.7-0.1,1c0,3.5,0,7,0,10.6c0,5.9-4.3,10.3-10.4,10.7c-4.9,0.3-9.9-4-10.6-9.3C3,19.4,8.4,13.5,14.7,13.8
				c0.3,0,0.7,0.1,1.1,0.1c0,1.9,0,3.7,0,5.6c-0.3,0-0.6,0-0.9,0c-2.9-0.2-5.2,1.8-5.3,4.6c-0.1,2.6,2,4.9,4.5,5
				c2.9,0.1,5.1-1.9,5.2-4.8c0-7,0-14.1,0-21.1C19.3,2.6,19.3,2.1,19.3,1.5z"/>
			<path class="st0" d="M18,0.2c2,0,3.8,0,5.6,0c0.5,4.8,3.3,7.4,8,8c0,1.8,0,3.6,0,5.5c-2.9,0.1-5.4-0.8-7.9-2.4
				c0,0.4-0.1,0.7-0.1,1c0,3.5,0,7,0,10.6c0,5.9-4.3,10.3-10.4,10.7c-4.9,0.3-9.9-4-10.6-9.3C1.7,18,7,12.2,13.4,12.5
				c0.3,0,0.7,0.1,1.1,0.1c0,1.9,0,3.7,0,5.6c-0.3,0-0.6,0-0.9,0c-2.9-0.2-5.2,1.8-5.3,4.6c-0.1,2.6,2,4.9,4.5,5
				c2.9,0.1,5.1-1.9,5.2-4.8c0-7,0-14.1,0-21.1C18,1.3,18,0.8,18,0.2z"/>
			<path class="st0" d="M26.8,6.5c-1.5-1.1-2.5-2.7-3-4.9c-1.4,0-2.9,0-4.5,0c0,0.6,0,1.1,0,1.6c0,7,0,14.1,0,21.1
				c0,2.9-2.3,4.9-5.2,4.8c-1.5-0.1-2.8-0.9-3.6-2c-1.4-0.9-2.3-2.5-2.2-4.3c0.1-2.7,2.4-4.7,5.3-4.6c0.3,0,0.6,0,0.9,0
				c0-1.5,0-3,0-4.4C8.2,13.6,3,19.4,4,25.7c0.3,2.1,1.3,4.1,2.7,5.7c1.9,1.5,4.2,2.4,6.6,2.3c6.2-0.4,10.4-4.7,10.4-10.7
				c0-3.5,0-7,0-10.6c0-0.3,0-0.6,0.1-1c2.5,1.6,5,2.5,7.9,2.4c0-1.6,0-3,0-4.5c0-0.3,0-0.7,0-1C29.7,8,28.1,7.4,26.8,6.5z"/>
		</g>
	</g>
</g>
</svg>
