<?xml version="1.0" encoding="utf-8"?>
<!-- Generator: Adobe Illustrator 25.2.1, SVG Export Plug-In . SVG Version: 6.00 Build 0)  -->
<svg version="1.1" id="Layer_1" xmlns="http://www.w3.org/2000/svg" xmlns:xlink="http://www.w3.org/1999/xlink" x="0px" y="0px"
	 viewBox="0 0 35 35" style="enable-background:new 0 0 35 35;" xml:space="preserve">
<style type="text/css">
	.st0{fill:#3176FF;}
</style>
<g>
	<path class="st0" d="M1.7,12.4h6.8v21.8H1.7V12.4z M5.1,1.6C7.2,1.6,9,3.3,9,5.5c0,2.2-1.8,3.9-3.9,3.9c-2.2,0-3.9-1.8-3.9-3.9
		C1.1,3.3,2.9,1.6,5.1,1.6 M12.7,34.2h6.8V23.4c0-2.8,0.5-5.6,4.1-5.6c3.5,0,3.5,3.2,3.5,5.8v10.6h6.8V22.2c0-5.9-1.3-10.4-8.1-10.4
		c-3.3,0-5.5,1.8-6.4,3.5h-0.1v-3h-6.5V34.2z"/>
</g>
</svg>
