<svg xmlns="http://www.w3.org/2000/svg" xmlns:xlink="http://www.w3.org/1999/xlink" version="1.1" x="0px" y="0px" viewBox="0 0 1000 1000" enable-background="new 0 0 1000 1000" xml:space="preserve">
    <g id="_x31_4">
        <path fill="#5D58A5" d="M977,483.7c0,117.2-48.1,223.8-126.7,303.5c0,0,0,0,0,0c-0.5,0.5-0.9,1-1.4,1.4   c-184.4,185.2-496.4,189.9-686.7,8.2h0c-3.5-3.3-6.9-6.7-10.3-10.1c-78.4-79.6-126.2-186.1-126.2-303   c0-246.6,213-446.6,475.7-446.6S977,237.1,977,483.7z"/>
    </g>
    <g id="_x31_3">
        <path fill="#FFFFFF" d="M579,924.4c0.1,0.4,0.2,0.9,0.3,1.3c-22.2,3-44.8,4.6-67.9,4.6c0,0-10.1,0-10.1,0   c-132.7,0-252.8-51-339.2-133.5c19.9-8.5,63.3-30.3,81.5-36.9c50.5-18.4,119.5-40.4,131.9-44.1c1.2-0.4,7.1-2.2,9.4-2.9   c15.6,0.5,267.5,8.3,283.4,8.8c18.1,10.1,121,44.8,140.5,51.4c2.6,0.9,24.6,9.5,40,15.6C778.8,859,684.8,908,579,924.4z"/>
    </g>
    <g id="_x31_2">
        <g>
            <path fill="#F9C5A2" d="M689.5,487.3c-5.4,7.9-14.4,30.7-13.4,35.1c1.4,6,9.7,20.6-10.3,22.8c0,0-3.7,1.4-7.9,1.4h-0.1    c-2.6,17.4-6.6,33.2-12.6,44.3l2.1,66.3v0l0.5,16.2v0l0.5,14.9c0,0-7.1,14.5-21.9,31.6c-0.1,0.2-0.3,0.3-0.4,0.5    c-17.8,20.4-41.9,52.3-82.8,60.2c0,0-3.5,0.7-3.5,0.7c-4.1,0.8-7.9,2.8-12.2,3.3c0,0-2.4-4.3-3-4.4c-6.2-1.6-59.5-17.6-92.4-39.3    c-23.5-15.5-18-82.9-18-83.7c-0.1-7.7-7-33.7-7.6-35.3c-6-16.3-21.4-26.1-33.7-61.2v0c-14,10.2-16.2-18.6-11.7-22.7    c4.9-4.5-27.1-28.3-29.2-38.7c-6.3-31.4-5.4-51.8,9.1-52.6c0.6,0,1.3,0,1.9,0.1c6.5,1.1,11.3,9.2,14,15c0.8-7.5,0.7,0.6-0.2-19.7    c-0.1,0-1.5-34.3-1.6-58.5c-0.2-36.9-8.6-106.9-1-112.4c52.7-65.1,160.3-62,177.4-65.2c27.8-5.3,107.4,0.3,113,41.6    c0,0.1,8.1,84.2,11.4,99.6c5.6,25.7-5.9,12.7-0.7,48.1c0.9,5.7,1.6,11.2,2,15.5c0.4,5.5,4.6,24.7,4.6,25.6c0,0,0.1,1.5,0.1,2.6    c4.5-4.4,10.4-9.6,16.3-13.2v0c2.7-1.7,5.1-2.8,6.5-3.3c0,0,0,0,0,0c5.8-2.2,10.7-1.6,13.5,3.7    C702.8,435.4,709.7,457.4,689.5,487.3z"/>
            <path fill="#CB936E" d="M348.3,465.2c0-3.2-20.5-22.3-10.5,29.3c1,5.1,12.5,19.7,12.6,18c0.2-5.4-12.5-26.5-5.3-37.3    C346.6,473,348.3,467.8,348.3,465.2z"/>
            <path fill="#CB936E" d="M659.6,461.3c0,0,13.8-9.3,18,4.6c1.8,6,1.4,23.4-2.7,26c-2.2,1.4-6.7-0.2-7.3-5.4    c-0.5-4.5-1.2-15.4-4.5-14.6C660,472.8,655.8,465.2,659.6,461.3z"/>
            <path fill="#CB936E" d="M673.5,440c0,0,11.6-16.6,21.1-3.6c4.5,6.1,6.2,15.6,0,30.2c-1.7,3.9-8.9,15.8-8.9,13.9    c0.3-8.5,3-27.7,1.1-34.4C685.8,442.5,685,437.1,673.5,440z"/>
        </g>
    </g>
    <g id="_x31_1">
        <g>
            <path fill="#E8B69A" d="M424.2,609.2c0,0,0.5,0.9,1.4,2.6c0.9,1.7,2.4,4.1,4.3,7.1c3.8,6.1,9.6,14.5,17.6,23.7    c4,4.6,8.6,9.3,13.9,13.9c5.3,4.6,11.2,8.9,17.7,12.6c6.6,3.7,13.9,6.5,21.6,8.2c0.9,0.3,1.9,0.4,2.9,0.5c1,0.2,1.9,0.3,2.9,0.5    c2,0.1,3.9,0.4,5.9,0.5c4,0.1,8,0.1,12-0.4c8-0.8,15.8-2.9,23-6c7.2-3.2,13.9-7.3,19.7-12.1c5.8-4.8,10.9-10.1,15.2-15.6    c0.5-0.7,1.1-1.4,1.6-2c0.5-0.7,1-1.4,1.5-2.1c1-1.4,2-2.7,2.9-4.1c0.9-1.4,1.8-2.7,2.7-4c0.8-1.4,1.6-2.7,2.4-4    c0.8-1.3,1.5-2.6,2.2-3.9c0.7-1.3,1.4-2.5,2.1-3.8c1.3-2.5,2.4-4.8,3.5-7.1c1-2.3,2-4.4,2.9-6.3c0.8-2,1.6-3.8,2.2-5.5    c0.3-0.8,0.7-1.6,1-2.4c0.3-0.7,0.5-1.4,0.8-2.1c0.5-1.3,0.9-2.4,1.2-3.3c0.7-1.8,1-2.8,1-2.8s-0.3,1-0.8,2.8    c-0.3,0.9-0.6,2.1-1,3.4c-0.2,0.7-0.4,1.4-0.7,2.1c-0.3,0.8-0.5,1.6-0.8,2.4c-0.6,1.7-1.2,3.6-2,5.6c-0.8,2-1.7,4.2-2.6,6.5    c-1,2.3-2.1,4.7-3.2,7.3c-0.6,1.3-1.3,2.5-1.9,3.9c-0.7,1.3-1.3,2.7-2.1,4c-2.9,5.5-6.5,11.1-10.8,16.8    c-4.3,5.7-9.4,11.3-15.3,16.3l-1.1,1l-1.2,0.9c-0.8,0.6-1.6,1.2-2.3,1.8c-0.8,0.6-1.6,1.1-2.4,1.7c-0.8,0.6-1.6,1.2-2.5,1.7    c-3.4,2.2-7,4.1-10.7,5.8c-7.5,3.4-15.7,5.5-24,6.4c-4.2,0.4-8.3,0.5-12.5,0.3c-2.1-0.1-4.2-0.3-6.2-0.5c-1-0.1-2.1-0.3-3.1-0.5    c-1-0.2-2.1-0.3-3-0.6c-8.1-1.8-15.6-5-22.4-8.8c-6.8-3.9-12.7-8.6-18-13.4c-5.3-4.8-9.8-9.8-13.7-14.5c-3.9-4.8-7.2-9.4-9.9-13.6    c-2.7-4.2-5-7.9-6.7-11.1c-1.8-3.1-3-5.7-3.8-7.4C424.6,610.1,424.2,609.2,424.2,609.2z"/>
        </g>
        <g>
            <path fill="#E8B69A" d="M435.6,500.3c0,0-0.4,0.8-1.2,2.3c-0.8,1.4-2,3.4-3.4,5.8c-0.7,1.2-1.5,2.5-2.4,3.8    c-0.9,1.3-1.8,2.7-2.8,4.1c-1,1.4-2,2.9-3.1,4.4c-1.1,1.5-2.2,3-3.3,4.5c-1.1,1.5-2.3,3-3.4,4.4c-1.1,1.5-2.3,2.8-3.3,4.1    c-1,1.3-1.8,2.6-2.1,3.8c-0.3,1.3-0.3,2.6,0.1,3.7c0.2,0.6,0.4,1.2,0.7,1.7c0.3,0.5,0.5,1,0.9,1.5c0.6,0.9,1.2,1.6,1.7,2.3    c1.1,1.2,1.7,1.9,1.7,1.9s-0.2-0.1-0.6-0.3c-0.4-0.2-0.9-0.6-1.6-1c-0.6-0.5-1.5-1.1-2.3-1.9c-0.9-0.8-1.7-1.9-2.4-3.2    c-0.7-1.4-1.1-3.2-0.8-5.1c0.3-1.9,1.2-3.6,2.2-5.1c0.5-0.8,1.1-1.5,1.6-2.2c0.5-0.7,1.1-1.5,1.6-2.2c1.1-1.5,2.2-2.9,3.3-4.4    c1.1-1.5,2.2-2.9,3.4-4.4c1.1-1.4,2.3-2.8,3.4-4.2c1.1-1.4,2.2-2.6,3.2-3.8c1-1.2,2-2.4,2.9-3.4c1.8-2.1,3.4-3.8,4.5-5    C434.9,500.9,435.6,500.3,435.6,500.3z"/>
        </g>
        <g>
            <path fill="#E8B69A" d="M545.9,472c0,0,0.6,0.3,1.8,1c1.1,0.7,2.8,1.6,4.9,2.9c1.1,0.6,2.2,1.4,3.4,2.2c1.2,0.8,2.6,1.7,4,2.7    c1.4,1,2.9,2.1,4.4,3.2c1.5,1.2,3.1,2.5,4.8,3.8c0.8,0.6,1.6,1.4,2.5,2.1c0.8,0.7,1.7,1.5,2.5,2.2c1.8,1.5,3.4,3.2,5.1,5    c0.8,0.9,1.7,1.8,2.5,2.6c0.4,0.5,0.8,0.9,1.3,1.3c0.4,0.4,0.9,0.8,1.3,1.2c1.9,1.6,3.9,3.2,6,4.8c4.1,3.2,8.6,6.7,12.1,11.2    c1.8,2.3,3.4,4.8,4.5,7.6c1.1,2.8,1.8,5.7,1.9,8.7c0.1,3-0.2,6-0.9,8.8c-0.2,0.7-0.3,1.4-0.5,2.1c-0.2,0.7-0.4,1.4-0.6,2.1    c-0.5,1.3-0.9,2.6-1.4,3.9c-2,5.3-4.3,10.2-6.7,14.9c-2.4,4.7-4.8,9.2-7.3,13.3c-1.2,2.1-2.5,4.1-3.7,6c-1.2,1.9-2.4,3.8-3.6,5.5    c-2.4,3.5-4.7,6.6-6.8,9.3c-2.1,2.7-4.1,5-5.7,6.8c-0.8,0.9-1.6,1.7-2.2,2.4c-0.7,0.7-1.3,1.2-1.7,1.7c-1,0.9-1.5,1.4-1.5,1.4    s0.5-0.5,1.3-1.5c0.4-0.5,1-1.1,1.6-1.8c0.6-0.7,1.3-1.6,2-2.6c0.8-0.9,1.5-2.1,2.4-3.2c0.9-1.2,1.8-2.5,2.7-3.9    c1.9-2.8,4-6,6.2-9.6c2.2-3.6,4.4-7.5,6.7-11.7c2.3-4.2,4.6-8.7,6.8-13.4c2.3-4.7,4.4-9.7,6.3-14.7c0.5-1.2,0.9-2.6,1.4-3.9    c0.2-0.6,0.4-1.3,0.6-1.9c0.2-0.6,0.4-1.3,0.5-1.9c0.6-2.6,0.9-5.2,0.7-7.9c-0.1-2.6-0.7-5.2-1.6-7.6c-0.9-2.4-2.3-4.7-3.9-6.7    c-3.2-4.2-7.3-7.6-11.4-10.9c-2-1.7-4.1-3.3-6-5.1c-0.5-0.5-0.9-0.9-1.4-1.4c-0.5-0.5-0.9-1-1.3-1.4c-0.8-0.9-1.6-1.8-2.4-2.7    c-1.6-1.8-3.1-3.5-4.7-5.1c-0.8-0.8-1.6-1.6-2.4-2.3c-0.8-0.8-1.5-1.5-2.3-2.2c-1.6-1.4-3.1-2.7-4.5-4c-1.5-1.2-2.9-2.4-4.2-3.4    c-1.3-1.1-2.6-2-3.7-3c-1.2-0.9-2.2-1.8-3.2-2.5c-2-1.5-3.5-2.6-4.6-3.4C546.5,472.4,545.9,472,545.9,472z"/>
        </g>
    </g>
    <g id="_x31_0">
        <path fill="#84663D" d="M456.7,366.1c-4.1-5.3-16.9-9.7-22.4-9.1c-15.9,1.7-57.6,20-49.4,22.3c5.5,1.5,48.4-7.1,62-4.1   C451.7,376.3,462.2,373.1,456.7,366.1z"/>
    </g>
    <g id="_x39_">
        <path fill="#84663D" d="M531.3,368.7c0,0,5.6-19,17.4-21c13.8-2.3,33.4,2,45,1.9c9-0.1,20.8,15.1,21.4,18.4   C615.1,368.1,548.4,363.7,531.3,368.7z"/>
    </g>
    <g id="_x38_">
        <g>
            <path fill="#CB936E" d="M487.2,504.8c1.4-0.9-17.7-16-23.2-11.8C453.4,501.1,485,506.2,487.2,504.8z"/>
            <path fill="#CB936E" d="M518.1,505.9c-1.9-0.3,18.2-20.1,24.7-15.2C551.6,497.2,525.3,507,518.1,505.9z"/>
            <g>
                <path fill="#E8B69A" d="M467.6,472c0,0-0.6,0.3-1.6,0.9c-1,0.7-2.4,1.7-3.9,3.4c-1.5,1.6-3.1,3.9-3.9,6.9     c-0.8,2.9-0.8,6.4,0.1,10.1c0.5,1.7,1.4,3.4,2.6,4.8c1.3,1.4,2.9,2.6,4.8,3.5c3.8,1.8,8.4,2.6,13.1,3.3c2.4,0.4,4.9,0.6,7.4,1.2     c1.3,0.3,2.6,0.6,4,1.4c0.3,0.2,0.7,0.5,1.1,0.7c0.2,0.2,0.3,0.4,0.5,0.5l0.1,0.1c0,0-0.1-0.2,0,0l0,0l0.2,0.2     c0.1,0.1,0.2,0.2,0.3,0.3l0.3,0.2l0.3,0.2l0.3,0.3c1.9,1.4,4.1,2.5,6.4,3.2c2.3,0.8,4.7,1.2,7.1,1.1c2.4,0,4.7-0.6,6.8-1.6     l0.8-0.4l0.7-0.5l1.6-1l1.6-1l0.8-0.5l0.9-0.5c1.2-0.6,2.4-1.3,3.5-1.8c1.2-0.5,2.3-1.1,3.5-1.6c2.3-1,4.6-1.9,6.9-2.8     c4.6-1.8,9-3.3,13.3-4.7c1.7-0.5,3.1-2,4.2-3.6c1.1-1.6,1.8-3.4,2.2-5.2c0.8-3.6,0.1-7.1-1.6-9.5c-1.7-2.5-4.1-4-6.1-4.9     c-1-0.5-2-0.8-2.8-1.1c-0.8-0.2-1.6-0.5-2.1-0.6c-1.2-0.3-1.8-0.4-1.8-0.4s0.6,0.1,1.9,0.2c0.6,0.1,1.3,0.2,2.2,0.4     c0.9,0.2,1.9,0.4,2.9,0.9c2.1,0.8,4.8,2.1,6.9,4.7c1,1.3,1.9,2.9,2.3,4.8c0.5,1.8,0.5,3.9,0.1,5.9c-0.4,2-1.1,4.1-2.2,6.1     c-0.6,1-1.3,1.9-2.1,2.8l-0.7,0.6l-0.8,0.6c-0.3,0.2-0.6,0.4-0.9,0.5l-0.4,0.2l-0.2,0.1l-0.3,0.1c-4.2,1.5-8.5,3.2-13,5.1     c-2.2,0.9-4.5,1.9-6.7,2.9c-1.1,0.5-2.2,1.1-3.4,1.6c-1.1,0.5-2.1,1.1-3.2,1.7l-0.8,0.4l-0.8,0.5l-1.6,1.1l-1.6,1.1l-0.9,0.6     l-1,0.5c-2.5,1.3-5.4,2-8.2,2c-2.8,0-5.6-0.5-8.2-1.4c-2.6-0.9-5.1-2.1-7.3-3.8l-0.4-0.3l-0.5-0.4l-0.5-0.4     c-0.1-0.1-0.2-0.2-0.3-0.4l-0.2-0.2l-0.2-0.2l0,0c-0.1,0-0.1-0.1-0.1-0.2c-0.2-0.1-0.3-0.2-0.5-0.3c-0.8-0.5-1.9-0.8-3.1-1.1     c-2.3-0.5-4.8-0.9-7.2-1.3c-4.8-0.8-9.6-1.8-13.8-4.1c-2.1-1.1-4-2.6-5.4-4.4c-1.4-1.8-2.3-3.9-2.8-5.9c-0.8-4-0.6-7.8,0.5-10.9     c1.1-3.1,3-5.4,4.6-7c1.7-1.6,3.3-2.5,4.4-3.1C467,472.2,467.6,472,467.6,472z"/>
            </g>
            <g>
                <path fill="#E8B69A" d="M513.4,433.5c0,0,0.3,1,0.8,2.7c0.3,0.9,0.6,1.9,1,3.1c0.4,1.2,0.9,2.5,1.4,4c0.5,1.4,1.2,3,1.8,4.7     c0.7,1.6,1.5,3.3,2.2,5.1c0.8,1.7,1.8,3.5,2.6,5.3c0.9,1.8,2,3.5,3,5.3l0.4,0.7c0.1,0.1,0.3,0.4,0.4,0.6c0.2,0.3,0.5,0.7,0.8,1.1     c0.7,0.8,1.3,1.5,2,2.3c1.4,1.6,2.7,3.3,3.7,5.2c1,1.9,1.5,4.2,1.3,6.2c-0.2,2.1-1,3.8-1.9,5.2c-0.9,1.4-1.9,2.5-2.8,3.4     c-0.9,0.9-1.8,1.6-2.5,2.2c-0.7,0.6-1.3,1-1.7,1.2c-0.4,0.3-0.6,0.4-0.6,0.4s0.2-0.2,0.5-0.6c0.3-0.4,0.8-0.9,1.4-1.6     c0.6-0.7,1.3-1.6,2-2.6c0.7-1,1.4-2.2,2.1-3.5c0.6-1.3,1-2.8,1-4.4c0-1.5-0.5-3.1-1.4-4.6c-0.9-1.5-2.1-2.9-3.5-4.4     c-0.7-0.7-1.4-1.5-2.1-2.3c-0.3-0.4-0.7-0.9-1.1-1.4c-0.2-0.2-0.3-0.4-0.5-0.7l-0.4-0.7c-1-1.9-2.1-3.7-3.1-5.6     c-0.4-0.9-0.9-1.9-1.3-2.8c-0.4-0.9-0.8-1.9-1.2-2.8c-0.7-1.9-1.3-3.7-1.8-5.4c-0.5-1.8-0.9-3.4-1.2-5c-0.3-1.6-0.6-3-0.8-4.2     c-0.2-1.3-0.3-2.4-0.4-3.3c-0.1-0.9-0.1-1.6-0.1-2.1C513.4,433.8,513.4,433.5,513.4,433.5z"/>
            </g>
            <g>
                <path fill="#E8B69A" d="M493.2,432.1c0,0,0,0.2,0.1,0.7c0,0.4,0.1,1.1,0.2,1.9c0,0.8,0.1,1.8,0.1,3c0,1.2-0.1,2.5-0.2,3.9     c-0.1,1.4-0.3,3-0.6,4.6c-0.3,1.6-0.7,3.3-1.2,5.1c-0.3,0.9-0.6,1.7-0.8,2.6c-0.3,0.9-0.7,1.8-1,2.6c-0.8,1.7-1.6,3.5-2.7,5.2     c-0.3,0.4-0.5,0.8-0.8,1.2l-0.9,1.2c-0.6,0.8-1.2,1.6-1.9,2.3c-0.7,0.7-1.3,1.4-2,2.1c-0.7,0.6-1.3,1.2-1.9,1.8     c-1.2,1.2-2.2,2.4-2.8,3.6c-0.6,1.3-1.1,2.6-1.1,3.8c0,1.3,0.1,2.5,0.4,3.5c0.3,1.1,0.6,2,1,2.7c0.3,0.7,0.6,1.3,0.8,1.7     c0.2,0.4,0.3,0.6,0.3,0.6s-0.2-0.2-0.5-0.5c-0.3-0.3-0.8-0.8-1.3-1.5c-0.2-0.3-0.5-0.7-0.8-1.1c-0.3-0.4-0.5-0.9-0.8-1.5     c-0.3-0.5-0.5-1.1-0.7-1.8c-0.1-0.3-0.2-0.7-0.3-1c-0.1-0.4-0.2-0.7-0.2-1.1c-0.2-1.5,0-3.3,0.7-5c0.7-1.7,1.7-3.3,3-4.7     c0.6-0.7,1.3-1.4,1.9-2c0.6-0.7,1.1-1.3,1.7-2c0.6-0.6,1.1-1.4,1.6-2.1l0.8-1.1l0.7-1.1c1-1.5,1.8-3.1,2.6-4.7     c0.4-0.8,0.7-1.6,1.1-2.4c0.3-0.8,0.6-1.6,1-2.4c0.6-1.6,1.1-3.2,1.6-4.7c0.2-0.8,0.4-1.5,0.6-2.2c0.2-0.7,0.4-1.4,0.6-2.1     c0.3-1.4,0.6-2.6,0.9-3.7c0.2-1.1,0.4-2.1,0.6-2.9C493,433,493.2,432.1,493.2,432.1z"/>
            </g>
        </g>
    </g>
    <g id="_x37_">
        <g>
            <path fill="#3B3B4C" d="M564.6,859.2c0.7,4.8,10.5,47.3,14.8,66.5c-30.3,4.2-61.3,5.5-91.4,4c4.8-25.4,12.3-64.8,11.6-68.6    c-3-15.1-16.1-35.1-30.5-51.4c18.4-14.2,51.1-36.1,53-36.1c5.8,0.3,11.5,0.2,17.1,0c0,0,0,0,0,0c1.8,0,32,20.1,50.7,34.3    C577,822.1,562.2,842.6,564.6,859.2z"/>
            <path fill="#30303D" d="M594.7,802.4c-1.6,1.7-3.3,3.5-5,5.4c-18.7-14.2-48.9-34.3-50.7-34.3c3.9,0,7.1,0.9,13.2,3.3    C562.2,780.8,577,788.4,594.7,802.4z"/>
            <path fill="#30303D" d="M522,773.6c-1.9,0-34.7,21.9-53,36.1c-1.6-1.9-3.3-3.7-4.9-5.4c0.8-0.6,1.5-1.2,2.3-1.8    c17.7-14.1,32.5-21.6,42.5-25.6C517.4,773.5,519.9,773.6,522,773.6z"/>
        </g>
    </g>
    <g id="_x36_">
        <g>
            <path fill="#E7EFF8" d="M638.3,857.9c-14.5-17.2-31.3-36.4-43.6-46.2c-1.5-1.2-3.2-2.5-5-3.9c1.7-1.9,3.4-3.8,5-5.4    c-17.7-14.1-32.5-21.6-42.5-25.6c-8.6-3.4-11.1-3.3-13.2-3.3c0,0,0,0,0,0c39.3-18.5,64-28.1,80.4-44.1    c19.6-19.2,26.1-39.6,27.6-63.1c15.4,6.1,30.2,43.8,36.5,61.8c0.5,0.6,0.9,1.3,1.3,1.9C703.8,763.2,638.3,857.9,638.3,857.9z"/>
            <path fill="#FFFFFF" d="M557.2,779c1.5,0.7,3,1.4,4.5,2.1C560.2,780.4,558.7,779.7,557.2,779z"/>
            <path fill="#FFFFFF" d="M561.7,781.1c1.2,0.6,2.4,1.2,3.6,1.9C564.2,782.4,563,781.7,561.7,781.1z"/>
            <path fill="#FFFFFF" d="M683.7,718.9c-6.3-18-21.2-55.7-36.6-61.8c-1.5,23.5-8,43.9-27.6,63.1c-16.4,16-41.1,34.9-80.4,53.4    c-0.2,0,1.5,0,2.7,0.2c6.6,0.8,23.9,7.9,42.1,20.6c18.4,12.6,37,30.9,51.5,48.1c0,0,47.7-74.7,49.6-112.3    C685.1,725.8,684.8,722,683.7,718.9z"/>
        </g>
        <g>
            <path fill="#E7EFF8" d="M522,773.6c-3.9,0-7.1,0.9-13.2,3.3c-10,4-24.8,11.5-42.5,25.6c-0.8,0.6-1.5,1.2-2.3,1.8    c1.7,1.7,3.3,3.5,4.9,5.4c-0.9,0.7-1.8,1.4-2.7,2.1c-12.3,9.8-29.5,29-44,46.2c0,0-71.9-87-44.9-139.1c8.8-17,21.1-46.4,36.5-52.4    c1.5,23.5,8,43.9,27.6,63.1C457.9,745.5,482.7,755.1,522,773.6C522,773.6,522,773.6,522,773.6z"/>
            <path fill="#FFFFFF" d="M522,773.6c-3.9,0-7.1,0.9-13.2,3.3c-31.7,12.6-61.1,39.5-83.1,65.5c0,0-59.2-92.7-48.3-123.5    c6.3-18,21.1-55.7,36.5-61.8c1.5,23.5,8,43.9,27.6,63.1C457.9,736.2,482.7,755.1,522,773.6C522,773.6,522,773.6,522,773.6z"/>
        </g>
    </g>
    <g id="_x35_">
        <g>
            <path fill="#3B3B4C" d="M557.1,547.9c0,0,25.8,0,28.4,2.6c1.3,1.4-1.7,5.7-6.3,10.4l-18,14.3L557.1,547.9z"/>
            <g>
                <path fill="#3B3B4C" d="M474.2,553.4c0,0-34.2,2.5-35.6,3c-2.3,0.8-0.1,3.9,0.8,4.8l28,20.3L474.2,553.4z"/>
                <path fill="#F4E1D7" d="M453.4,555.8c0,0,4,19,7,23.7c0,0,61.6,32.6,108.2-10.6l1.6-16.8L453.4,555.8z"/>
                <path fill="#F9C5A2" d="M438.6,557.9c4.7,1.3,36.2,28.9,72,26.2c54.9-4.1,72.6-34.4,74.7-31c1.4,2.3-20.4,27.4-46,38.9     c-11.3,5.1-35,8.6-56.1,0.7C457.9,583.5,432.1,556.1,438.6,557.9z"/>
                <g>
                    <path fill="#E8B69A" d="M585.3,553.1c0,0,0.1,0.2,0.1,0.5c0,0.3-0.2,0.8-0.5,1.4c-0.6,1.2-1.6,2.8-3.1,4.8      c-3,3.9-7.6,9.1-13.9,14.8c-3.1,2.8-6.6,5.7-10.5,8.6c-3.9,2.8-8.2,5.6-12.9,8.1c-1.2,0.6-2.4,1.2-3.6,1.8l-0.9,0.4l-1,0.4      c-0.6,0.3-1.2,0.5-1.9,0.8c-2.7,1-5.3,1.7-8,2.4c-5.5,1.2-11.1,1.9-16.8,2c-5.7,0.1-11.4-0.3-16.9-1.3c-5.5-1-10.8-2.6-15.7-4.7      c-4.9-2.1-9.3-4.7-13.4-7.3c-4.1-2.6-7.7-5.3-11-8c-6.5-5.3-11.5-10.3-14.6-14.1c-1.6-1.9-2.7-3.5-3.1-4.7      c-0.1-0.3-0.2-0.6-0.1-0.9c0.1-0.3,0.4-0.3,0.5-0.3c0.3,0,0.5,0.1,0.5,0.1c0,0-0.2-0.1-0.5,0c-0.2,0-0.4,0.1-0.4,0.3      c0,0.2,0.1,0.5,0.2,0.8c0.6,1.2,1.8,2.6,3.5,4.3c3.4,3.5,8.6,8,15.3,12.9c3.3,2.4,7.1,4.9,11.1,7.4c4.1,2.4,8.5,4.7,13.2,6.6      c2.3,1,4.8,1.8,7.3,2.5c1.3,0.3,2.5,0.7,3.8,1c1.3,0.3,2.6,0.6,3.9,0.8c5.3,0.9,10.7,1.3,16.2,1.1c5.4-0.1,10.9-0.7,16.1-1.8      c2.6-0.6,5.2-1.3,7.6-2.1c0.6-0.2,1.2-0.5,1.8-0.7l0.9-0.4l0.9-0.4c1.2-0.5,2.4-1.1,3.5-1.7c9.2-4.6,17.1-10.3,23.5-15.5      c6.4-5.2,11.4-10.1,14.6-13.7c1.6-1.8,2.8-3.3,3.5-4.4c0.3-0.5,0.6-1,0.6-1.3c0-0.2,0-0.3,0-0.4      C585.3,553.1,585.3,553.1,585.3,553.1z"/>
                </g>
                <path fill="#FFFFFF" d="M450.4,553.8c-3.9,4.2,11.4,13.1,20,15.7c29.5,9,77.9,7.2,99.8-9.1c1.5-1.1,3.4-10.9,1.3-11.4     c-3.4-0.7-23.9-1.4-36.6-0.6c-11.4,0.8-14.2,4.7-27.4,4.3c-11.5-0.3-20.8-4-30.4-3.2C464.9,550.5,452.3,551.7,450.4,553.8z"/>
                <path fill="#CB936E" d="M437.8,557.2c-3.2-1.6,47.5-20,60.4-13.6c5.8,2.9,12.1,7.2,20.9,0.8c8.1-6,68.7,5.7,65.7,5.5     c-19.6-1-58,0-62.7,1.4c-7,2.1-10.3,6.3-27.2-0.1C481.3,545.9,437.8,557.2,437.8,557.2z"/>
            </g>
        </g>
    </g>
    <g id="_x34_">
        <g>
            <g>
                <path fill="#FFFFFF" d="M454.9,416.3c0,0-2.6,3.3-25.4,4.6c-4,0.2-8.5,0.4-13.8,0.5c-7.1,0.1-15.4,0-25.3-0.3     c0,0,9.2-8.6,22.4-13c4.8-1.6,10.2-2.6,15.9-2.5C437.1,406,446.1,408.8,454.9,416.3z"/>
                <g>
                    <path fill="#705433" d="M454.9,416.3c-0.5,0.5-1.1,0.8-1.7,1.1c-0.6,0.3-1.3,0.5-1.9,0.7c-1.3,0.4-2.6,0.8-3.9,1.1      c-2.7,0.6-5.4,1-8.1,1.4c-1.3,0.2-2.7,0.3-4.1,0.4c-1.4,0.1-2.7,0.2-4.1,0.3c-2.7,0.2-5.4,0.3-8.1,0.4c-2.7,0.1-5.4,0.3-8.2,0.3      l-8.2,0l-16.3-0.1l-1.9,0l1.4-1.3c2.3-2.1,4.7-3.8,7.2-5.4c2.5-1.6,5.1-3.1,7.8-4.4c5.4-2.6,11.1-4.6,17.1-5.3      c6-0.7,12.1-0.2,17.7,1.7C445.4,409.2,450.5,412.4,454.9,416.3z M454.9,416.3c-4.6-3.7-9.8-6.7-15.4-8.4      c-5.6-1.7-11.6-2.1-17.4-1.3c-5.8,0.8-11.4,2.7-16.6,5.3c-5.2,2.6-10.2,5.9-14.5,9.7l-0.5-1.3l16.3,0.2l8.1,0.1      c2.7,0,5.4-0.1,8.1-0.1c2.7-0.1,5.4-0.1,8.1-0.2c2.7-0.1,5.4-0.3,8.1-0.6c2.7-0.2,5.4-0.5,8.1-1c1.3-0.2,2.7-0.5,4-0.9      c0.7-0.2,1.3-0.4,1.9-0.6C453.8,417,454.4,416.8,454.9,416.3z"/>
                </g>
            </g>
            <g>
                <path fill="#E8B69A" d="M430.3,401.2c0,0-0.2,0-0.5,0c-0.3,0-0.8,0-1.4,0c-0.6,0-1.3,0.1-2.1,0.2c-0.4,0-0.8,0.1-1.3,0.2     c-0.5,0.1-0.9,0.1-1.4,0.2c-0.5,0.1-1,0.2-1.5,0.3c-0.5,0.1-1.1,0.3-1.6,0.4c-1.1,0.2-2.3,0.6-3.5,1c-1.2,0.4-2.4,0.8-3.6,1.3     c-1.2,0.5-2.5,0.9-3.7,1.5c-1.2,0.5-2.4,1.1-3.6,1.7c-1.2,0.6-2.4,1.1-3.5,1.7c-1.1,0.6-2.2,1.1-3.2,1.7c-1,0.6-2,1.1-2.9,1.6     c-0.9,0.5-1.7,1-2.4,1.4c-0.7,0.4-1.4,0.8-1.9,1.1c-1.1,0.6-1.7,0.9-1.7,0.9s0.4-0.5,1.3-1.4c0.4-0.4,0.9-1,1.5-1.6     c0.3-0.3,0.6-0.6,0.9-1c0.3-0.3,0.7-0.6,1.1-1c0.8-0.7,1.7-1.4,2.6-2.2c0.9-0.7,2-1.4,3.1-2.2c1.1-0.8,2.3-1.4,3.5-2.1     c1.2-0.7,2.5-1.3,3.8-1.9c1.3-0.6,2.6-1,4-1.5c0.7-0.2,1.3-0.4,2-0.6c0.7-0.2,1.3-0.3,2-0.5c1.3-0.2,2.6-0.5,3.8-0.5     c0.6,0,1.2-0.1,1.8-0.1c0.6,0,1.1,0,1.7,0c1.1,0,2,0.1,2.9,0.3c0.9,0.1,1.6,0.3,2.2,0.5C429.6,400.9,430.3,401.2,430.3,401.2z"/>
            </g>
            <g>
                <path fill="#E8B69A" d="M447,425c0,0-0.1,0.2-0.3,0.4c-0.2,0.3-0.6,0.7-1.1,1.1c-0.5,0.4-1.2,0.9-2,1.4c-0.4,0.2-0.8,0.5-1.3,0.8     c-0.5,0.3-1,0.5-1.5,0.7c-1,0.5-2.2,0.9-3.5,1.4c-1.3,0.4-2.6,0.8-4,1c-0.7,0.1-1.4,0.3-2.1,0.4c-0.7,0.1-1.5,0.2-2.2,0.3     c-1.5,0.2-3,0.2-4.5,0.3c-1.5,0.1-3,0-4.5-0.1c-1.5,0-2.9-0.2-4.4-0.4c-1.4-0.2-2.8-0.3-4-0.6c-1.3-0.2-2.5-0.5-3.6-0.7     c-1.1-0.2-2.1-0.5-3-0.8c-0.9-0.2-1.6-0.5-2.3-0.7c-1.3-0.4-2-0.7-2-0.7s0.8,0,2.1,0c0.7,0,1.5,0,2.4,0.1c0.9,0,1.9,0.1,3,0.1     c1.1,0,2.3,0,3.6,0.1c1.3,0.1,2.6,0.1,4,0.1c1.4,0,2.8,0.1,4.2,0.1c1.4,0,2.9,0.1,4.3,0c1.5-0.1,2.9,0,4.3-0.2     c0.7,0,1.4-0.1,2.1-0.1c0.7-0.1,1.4-0.1,2-0.2c1.4-0.1,2.6-0.3,3.9-0.5c0.6-0.1,1.2-0.3,1.8-0.4c0.6-0.1,1.1-0.2,1.7-0.4     c1.1-0.3,2-0.5,2.9-0.8c0.8-0.3,1.6-0.5,2.2-0.8C446.4,425.4,447,425,447,425z"/>
            </g>
            <path fill="#5E59A5" d="M433.6,413.6c0,3-1.6,5.6-4.1,7.4c-4,0.2-8.5,0.4-13.8,0.5c-2.9-1.7-4.8-4.6-4.8-7.8c0-2,0.7-3.9,2-5.4    c4.8-1.6,10.2-2.6,15.9-2.5C431.7,407.5,433.6,410.3,433.6,413.6z"/>
            <circle fill="#3B3B4C" cx="421.8" cy="413" r="5.8"/>
            <ellipse fill="#FFFFFF" cx="416" cy="413" rx="2.1" ry="1.9"/>
        </g>
    </g>
    <g id="_x33_">
        <g>
            <g>
                <path fill="#FFFFFF" d="M607,405.3c0,0-10.6,3.8-28.4,5c-3,0.2-6.3,0.4-9.7,0.4c-7.8,0.1-16.6-0.4-26.2-1.7     c0,0,8.7-12.4,24.8-15.4c3.2-0.6,6.8-0.8,10.6-0.4C586.3,393.9,596,397.4,607,405.3z"/>
                <g>
                    <path fill="#705433" d="M607,405.3c-5.1,1.8-10.4,3-15.8,3.9c-2.7,0.5-5.4,0.8-8.1,1.1c-1.3,0.2-2.7,0.3-4.1,0.4      c-1.4,0.1-2.7,0.2-4.1,0.2l-4.1,0.2c-1.4,0.1-2.7,0.1-4.1,0.1c-2.7,0-5.4,0-8.1-0.2c-5.4-0.2-10.8-0.7-16.2-1.4l-1.3-0.2l0.7-1      c1.9-2.5,4-4.7,6.4-6.6c2.4-2,4.9-3.7,7.6-5.1c5.4-2.8,11.5-4.5,17.7-4.5c6.1,0,12.2,1.4,17.8,3.7      C597,398.5,602.2,401.6,607,405.3z M607,405.3c-5-3.4-10.2-6.4-15.9-8.5c-5.6-2.1-11.5-3.4-17.5-3.2c-1.5,0-3,0.2-4.4,0.4      c-1.5,0.2-2.9,0.6-4.3,0.9c-2.9,0.8-5.6,1.9-8.2,3.2c-5.2,2.8-9.9,6.7-13.4,11.3l-0.5-1.2c5.3,0.8,10.7,1.3,16.1,1.6      c2.7,0.1,5.4,0.2,8.1,0.2c2.7,0,5.4-0.1,8.1-0.2c1.3,0,2.7-0.1,4-0.1c1.3-0.1,2.7-0.2,4-0.3c2.7-0.2,5.4-0.6,8-0.9      C596.5,407.8,601.8,406.8,607,405.3z"/>
                </g>
            </g>
            <g>
                <path fill="#E8B69A" d="M551.1,393c0,0,0.8-0.6,2.2-1.6c1.5-0.9,3.7-2.1,6.5-3.2c1.4-0.5,3-1.1,4.7-1.4c1.7-0.4,3.5-0.8,5.4-1     c1.9-0.2,3.9-0.3,5.9-0.3c2,0.1,4,0.3,6.1,0.6l1.5,0.3l1.5,0.4c1,0.2,2,0.6,2.9,0.9c1.9,0.6,3.7,1.5,5.4,2.3     c1.7,0.9,3.3,1.8,4.7,2.8c0.7,0.5,1.4,1,2,1.5c0.6,0.5,1.3,1,1.8,1.5c1.1,1,2.2,1.9,3,2.8c0.8,0.9,1.6,1.6,2.1,2.3     c1.1,1.3,1.7,2.1,1.7,2.1s-0.8-0.6-2.2-1.6c-0.7-0.5-1.5-1.1-2.5-1.8c-0.9-0.7-2.1-1.4-3.3-2.2c-0.6-0.4-1.3-0.8-1.9-1.2     c-0.7-0.4-1.4-0.8-2.1-1.2c-1.4-0.8-3-1.5-4.6-2.2c-1.6-0.7-3.4-1.3-5.1-1.8c-0.9-0.3-1.8-0.5-2.7-0.7l-1.4-0.3l-1.4-0.3     c-1.9-0.4-3.7-0.5-5.6-0.7c-1.9-0.1-3.7-0.2-5.5-0.1c-1.8,0.1-3.5,0.2-5.1,0.5c-1.6,0.2-3.2,0.5-4.6,0.8     c-2.8,0.6-5.2,1.3-6.8,1.9C552.1,392.6,551.1,393,551.1,393z"/>
            </g>
            <g>
                <path fill="#E8B69A" d="M554.7,418.8c0,0,0.7,0,2-0.1c1.3,0,3-0.1,5.2-0.1c1.1,0,2.2,0,3.4,0c1.2,0,2.5,0,3.8,0.1     c2.6,0,5.4,0.1,8.2,0.1c1.4,0,2.8,0,4.2,0c1.4,0,2.7,0,4-0.1c1.3,0,2.6-0.1,3.7-0.2c0.6,0,1.2-0.1,1.7-0.2c0.6,0,1.1-0.1,1.6-0.2     c0.5-0.1,1-0.2,1.5-0.2c0.5-0.1,0.9-0.2,1.3-0.3c0.4-0.1,0.8-0.2,1.1-0.3c0.3-0.1,0.7-0.2,0.9-0.3c0.3-0.1,0.5-0.2,0.8-0.3     c0.2-0.1,0.4-0.2,0.5-0.3c0.3-0.2,0.5-0.3,0.5-0.3s-0.1,0.1-0.3,0.4c-0.1,0.1-0.2,0.3-0.4,0.5c-0.2,0.2-0.4,0.4-0.6,0.6     c-0.2,0.2-0.5,0.4-0.9,0.7c-0.3,0.2-0.7,0.5-1.1,0.7c-0.4,0.2-0.8,0.4-1.3,0.6c-0.5,0.2-1,0.4-1.5,0.6c-1,0.4-2.2,0.7-3.4,1     c-1.2,0.3-2.5,0.5-3.9,0.7c-2.7,0.3-5.6,0.5-8.5,0.4c-1.4,0-2.9-0.1-4.3-0.2c-1.4-0.1-2.8-0.2-4.1-0.4c-1.3-0.1-2.6-0.4-3.8-0.6     c-1.2-0.2-2.4-0.4-3.4-0.6c-2.1-0.4-3.8-0.9-5-1.3C555.4,419.1,554.7,418.8,554.7,418.8z"/>
            </g>
            <path fill="#5E59A5" d="M584.6,401.8c0,3.7-2.4,6.8-6,8.4c-3,0.2-6.3,0.4-9.7,0.4c-4.1-1.4-7-4.9-7-8.8c0-3.5,2.2-6.6,5.6-8.2    c3.2-0.6,6.8-0.8,10.6-0.4C581.9,394.7,584.6,398,584.6,401.8z"/>
            <circle fill="#3B3B4C" cx="572.6" cy="401.3" r="5.8"/>
            <ellipse fill="#FFFFFF" cx="566.8" cy="401.3" rx="2.1" ry="1.9"/>
        </g>
    </g>
    <g id="_x32_">
        <g>
            <path fill="#A8886A" d="M330.6,199.1c0,0,0.2-0.2,0.6-0.5C331,198.8,330.8,198.9,330.6,199.1z"/>
            <path fill="#84663D" d="M675,329.9c0,0,29-17.1,27.5-69.5c0,0-1.4,32.2-19.8,44.8c0.3-0.4,27.9-35.2-0.6-83.4c1.1-1.2,1.9-2,1.9-2    c-2.3-2.2-14.4,7.1-14.6,7.2c2.9-7.9,10.9-14.8,16.5-18.9c0.5-0.4,1-0.7,1.4-1c2.6-1.8,4.5-2.9,4.5-2.9    c-7.7-0.4-13.9,0.9-18.9,2.9c-0.8,0.3-1.6,0.7-2.3,1c-11.7,5.7-15.7,15.6-15.7,15.6c0-4.4,3.1-10.3,6.8-15.6    c0.2-0.3,0.5-0.7,0.7-1c5-7.1,10.5-13,10.5-13c-6.7-0.9-14.6,7-19.6,13c-0.3,0.4-0.6,0.7-0.8,1c-2.5,3.1-4,5.5-4,5.5    c0.3-1.9,0.5-3.7,0.7-5.5c0-0.3,0.1-0.7,0.1-1h-1c1.8-13.7-7.1-22.4-7.5-22.8c4.2,4.5-2.1,12.3-2.1,12.3    c0.3-7.1-15.3-23.5-15.3-23.5c1,16.5-8.2,32.1-8.4,32.3c4.9-15.5-11.1-45.8-11.1-45.8c0.7,3.5-3.1,8.4-3.1,8.4    c1-9.6-5.9-21.5-5.9-21.5c2.1,33.4-23.8,50.2-24,50.3c9.4-9.6,9.4-34.1,9.4-34.1c-0.3,9.7-11,25.2-11.1,25.5    c20.8-44.7-35.8-60.6-36.2-60.7c18.4,16.6,1.3,11.1-3.9,4c-3.3-4.5-6-6-6.1-6c3,2.5,4.9,5.1,6.1,7.5c2.2,4.7,1.6,9.2,0,12.9V179    c-25-25.8-61.3-35.7-72.7-38.2C467.9,145,476,165,476,165c-9.4-12.8-44.1-25.3-44.1-25.3c1.4,0.7,4.7,12.1,4.7,12.1    c-32.4-36.7-93.3-1.8-75-7c0.8-0.2,1.5-0.4,2.3-0.6c17.5-3.7,34.5,6.1,34.5,6.1c-134.8-11-95.7,75.1-95.7,125.9    c0,0,11.9-4.4,3.6,23.7c2.7-6.8,8.4-15.5,20.2-22.9c-5,28.4,7.3,66.4,7.3,66.4c1,1,5.5,49.1,5.2,64.4    c-0.2,8.4,14.8,44.5,16.9,52.5c5.2,19.7-4.2-121.6,1.5-148.7c2-9.4,1.4-35.1,14-43.9c0,0,20.2-10.3,56.3-6.2    c0,0-50.9,18.3-61.7,48c0,0,29.2-61.8,148.4-49.5c0,0,5.3-13.8,13.9-15.4l0.3,19.4c43.8-38.8,92.2-40.9,97-39.6    c53.5,14.2,31.1,219.3,36,214.2c0.1-0.1,2.9-2.6,2.9-2.7c0.1-0.3,5.1-12.9,6.2-22.3c1.8-15.3,3-35.1,0.1-49.4    c0.1-4.6,0.1-9.3,0.2-14c3.8,2.6,8.3,10.4,9.5,19.7c0.9,6.5,1.6-19.1-9.4-29.1c0-0.9,0-1.7,0-2.6c5-1.4,15.6-5.7,19.8-17.4    C690.8,321.1,678.5,331.2,675,329.9z M677.9,237.9c0,0-1.4,18.7-4.6,16.9c-8.4-4.6,5.1-28.9,8.6-32.8c2,6.1,11.4,38.3-4.9,66.8    c-1.4,2.4-3,4.8-4.7,7.2C672.5,295.5,686.4,251.8,677.9,237.9z"/>
            <path fill="#A8886A" d="M323.5,236.8c0,0-8-0.1-12.1,2.3c0,0,22-19.9,41.8-25.5c-24.3,4.5-84.5,21.4-44.2,74.1    C309,287.7,298.9,250,323.5,236.8z"/>
            <path fill="#A8886A" d="M680.2,317.7c0,0,29-17.1,27.5-69.5c0,0-1.4,32.2-19.8,44.8c0.3-0.4,27.9-35.2-0.6-83.4    c1.1-1.2,1.9-2,1.9-2c-2.3-2.2-14.4,7.1-14.6,7.2c2.9-7.9,10.9-14.8,16.5-18.9c0.5-0.4,1-0.7,1.4-1c2.6-1.8,4.5-2.9,4.5-2.9    c-7.7-0.4-13.9,0.9-18.9,2.9c-0.8,0.3-1.6,0.7-2.3,1c-11.7,5.7-15.7,15.6-15.7,15.6c0-4.4,3.1-10.3,6.8-15.6    c0.2-0.3,0.5-0.7,0.7-1c5-7.1,10.5-13,10.5-13c-6.7-0.9-14.6,7-19.6,13c-0.3,0.4-0.6,0.7-0.8,1c-2.5,3.1-4,5.5-4,5.5    c0.3-1.9,0.5-3.7,0.7-5.5c0-0.3,0.1-0.7,0.1-1h-1c1.8-13.7-7.1-22.4-7.5-22.8c4.2,4.5-2.1,12.3-2.1,12.3    c0.3-7.1-15.3-23.5-15.3-23.5c1,16.5-8.2,32.1-8.4,32.3c4.9-15.5-11.1-45.8-11.1-45.8c0.7,3.5-3.1,8.4-3.1,8.4    c1-9.6-5.9-21.5-5.9-21.5c2.1,33.4-23.8,50.2-24,50.3c9.4-9.6,9.4-34.1,9.4-34.1c-0.3,9.7-11,25.2-11.1,25.5    c20.8-44.7-35.8-60.6-36.2-60.7c18.4,16.6,1.3,11.1-3.9,4c-3.3-4.5-6-6-6.1-6c3,2.5,4.9,5.1,6.1,7.5c2.2,4.7,1.6,9.2,0,12.9v33.1    c-25-25.8-61.3-35.7-72.7-38.2c11.7,4.2,19.9,24.2,19.9,24.2c-9.4-12.8-44.1-25.3-44.1-25.3c1.4,0.7,4.7,12.1,4.7,12.1    c-32.4-36.7-93.3-1.8-75-7c0.8-0.2,1.5-0.4,2.3-0.6c17.5-3.7,34.5,6.1,34.5,6.1c-134.8-11-105.4,79.9-105.4,79.9    c20.8-117.4,137-49.9,137-49.9c-69.4-27.3-99.5-2-104,2.3c7.7-5.5,76.8-8.5,50.5-6.7c-0.5,0-1.1,0.1-1.6,0.1    c-19.4,1.9-41.8,14.5-52.9,21.4c10.5-4.2,29.2-8.7,29.2-8.7c-16.4,7-15.5,10.6-15.5,10.6c50.6-22.7,137.4,7,137.4,7    C364.9,175.9,334,211.1,334,211.1c54.4-28.6,115.8-3.6,115.8-3.6c-14.8-3.6-32-0.5-35.1,0.2c9.7-1.7,43.1,9.3,43.1,9.3    c48.1,12.8,72.2,5.9,72.2,5.9s-20.6,13.9-130.4-1.8c0,0-30.2-2.6-41,5.3c0,0,31.6-3.8,44.1,3c-8.3-0.9-72.4-6.7-94.8,34.8    c0,0,20.6-14.3,32.6-14.3c0,0-20.6,9.9-29,38c2.7-6.8,8.4-15.5,20.2-22.9c-5,28.4,7.3,66.4,7.3,66.4c1,1,3.2,34.5,8.3,68.3    c1.3,8.3,7.5,51.4,8.7,59.6c4,27.1,1-132.6,6.6-159.8c2-9.4,1.4-35.1,14-43.9c0,0,20.2-10.3,56.3-6.2c0,0-50.9,18.3-61.7,48    c0,0,40.9-55.5,145.3-46.9c0,0,8.9-13.5,17.5-15.1l-0.1,23.4c22.8-17.7,50.1-26.1,50.1-26.1c24.8-7.5,37.9-2.2,49.3,3.3    c15.6,7.4,13.8,66.3,14.1,72.9c1.5,28.5,4.4,49.3,5.9,67.8c0.8,10.1,2,21.4,2.1,29.1c1.4,72.7,19.4,5.3,20.5-4.1    c1.8-15.3,3-35.1,0.1-49.4c0.1-4.6,0.1-9.3,0.2-14c3.8,2.6,8.3,10.4,9.5,19.7c0.9,6.5,1.6-19.1-9.4-29.1c0-0.9,0-1.7,0-2.6    c5-1.4,15.6-5.7,19.8-17.4C696,308.9,683.7,319,680.2,317.7z M683.1,225.7c0,0-1.4,18.7-4.6,16.9c-8.4-4.6,5.1-28.9,8.6-32.8    c2,6.1,11.4,38.3-4.9,66.8c-1.4,2.4-3,4.8-4.7,7.2C677.7,283.3,691.6,239.6,683.1,225.7z"/>
        </g>
    </g>
    <g id="_x31_">
        <path fill="#3B3B4C" d="M681.9,406c-4.5-7.4-14.1-19.7-19.5-26.5v-10.7c-15.8,0.8-47.1-3.3-48.6-3.6c0,0,0,0,0,0   c-38.9-3.1-62.9-0.9-77.6,2.6l0,0l0,0c0,0,0,0,0,0c0,0,0,0,0,0c-19.6,4.7-22.7,11.8-22.7,11.8h-31.2c-2.3-6.2-27.7-6.4-35.2-6.6   c-20.7-0.7-47.1-0.9-67.4,3.1c-5,1-23.3,6.6-34.7,11.5c-3.7,1.6-6.4,2.7-6.4,2.7l0.6,17.7c4.9-2.3,11.1,2.9,11.3,5.8   c0.7,13.1,4.2,23.7,6.1,28.5c0,0,0,0,0,0c0,0,0,0,0,0c2,5.6,6.2,10,9.7,14c16.6,18.7,74.8,10.1,90.5,2.2   c22.7-11.3,28.1-46.7,29.4-60.9c0.3-3.7,0.4-6,0.4-6l22.2-0.2c0,19.5,21.2,49.2,28.3,55.5c19.1,16.9,87.1,12.4,101.2-3.3   c7.2-8,10.5-21.5,12.1-32.4c1-7,1.3-14.3,1.3-17.9c3.6,0,21.1,21.7,26.5,32.6l0,0v0h0v0c2-1.2,4.2-2.4,6.5-3.3c0,0,0,0,0,0   c0.9-0.3,1.2-0.4,2.5-0.8C687,421.6,686.6,413.7,681.9,406z M448.1,455.4c0,0-0.4,0.2-1.1,0.4c-6.7,2.5-42.6,14.2-72.8-2.3   c-7.5-4.1-13.4-12.6-16.2-24.9c-1.6-7.2-2.2-15.8-1.3-25.7c1.4-16.3,0.2-23.8,62.2-23.9c15.5,0,58.1-5.3,59.8,18.5   c0,0.3,0,0.5,0,0.8C479.3,414.1,474.5,441.8,448.1,455.4z M638.3,433.5c-6.8,17.3-42.2,20.2-81.3,15.8c-6.8-0.8-37.9-12.9-37.6-62   c0.1-8.9,64.6-30.7,114-12.4c6.4,2.4,10.5,9.9,11.5,20.7C646,405.8,644,419,638.3,433.5z"/>
    </g>
</svg>